<svg t="1722074023699" class="icon" viewBox="0 0 1024 1024" version="1.1" xmlns="http://www.w3.org/2000/svg" p-id="1619" width="200" height="200"><path d="M512 0c282.7776 0 512 229.2224 512 512s-229.2224 512-512 512S0 794.7776 0 512 229.2224 0 512 0zM396.8 281.6H307.0464a25.6 25.6 0 0 0-25.4464 25.4464c0 240.4864 194.8672 435.3536 435.3536 434.8928a25.6 25.6 0 0 0 25.4464-25.4464V627.2a25.6 25.6 0 0 0-25.4464-25.4464 290.9184 290.9184 0 0 1-91.648-14.3872 26.0608 26.0608 0 0 0-25.9584 6.2464L543.232 649.728a388.3008 388.3008 0 0 1-168.96-168.96l56.1664-56.6784a25.0368 25.0368 0 0 0 6.2464-25.9072 302.9504 302.9504 0 0 1-14.3872-91.648 25.1904 25.1904 0 0 0-25.4464-24.9856z" fill="#FF4B39" p-id="1620"></path></svg>